<svg width="148" height="46" viewBox="0 0 148 46" fill="none" xmlns="http://www.w3.org/2000/svg">
<path d="M61.4 30H63.81V23.92H70.63V30H73.03V15.6H70.63V21.66H63.81V15.6H61.4V30ZM78.8536 30.3C79.7136 30.3 80.4436 30.16 81.0436 29.88C81.6503 29.5933 82.1836 29.15 82.6436 28.55V30H84.7536V23.37C84.7536 22.9033 84.7336 22.4733 84.6936 22.08C84.6536 21.68 84.5369 21.29 84.3436 20.91C83.9903 20.1967 83.4469 19.6833 82.7136 19.37C81.9869 19.0567 81.1436 18.9 80.1836 18.9C78.9169 18.9 77.9069 19.1767 77.1536 19.73C76.4003 20.2833 75.8903 21.0167 75.6236 21.93L77.8236 22.62C78.0036 22.0667 78.3203 21.6767 78.7736 21.45C79.2269 21.2233 79.6969 21.11 80.1836 21.11C80.9169 21.11 81.4569 21.26 81.8036 21.56C82.1503 21.8533 82.3469 22.31 82.3936 22.93C81.4469 23.07 80.5669 23.2067 79.7536 23.34C78.9469 23.4667 78.2603 23.6233 77.6936 23.81C76.8403 24.1033 76.2169 24.52 75.8236 25.06C75.4303 25.5933 75.2336 26.2533 75.2336 27.04C75.2336 27.6333 75.3703 28.1767 75.6436 28.67C75.9236 29.1633 76.3336 29.56 76.8736 29.86C77.4136 30.1533 78.0736 30.3 78.8536 30.3ZM79.3336 28.38C78.7669 28.38 78.3336 28.25 78.0336 27.99C77.7403 27.73 77.5936 27.4033 77.5936 27.01C77.5936 26.6567 77.7069 26.37 77.9336 26.15C78.1669 25.93 78.4903 25.7433 78.9036 25.59C79.2836 25.4633 79.7403 25.3533 80.2736 25.26C80.8069 25.16 81.5036 25.0433 82.3636 24.91C82.3569 25.1633 82.3403 25.4467 82.3136 25.76C82.2869 26.0667 82.2236 26.3433 82.1236 26.59C82.0436 26.8367 81.8869 27.1 81.6536 27.38C81.4269 27.66 81.1203 27.8967 80.7336 28.09C80.3469 28.2833 79.8803 28.38 79.3336 28.38ZM87.337 30H89.767V23.35C89.767 22.6767 89.9504 22.13 90.317 21.71C90.6904 21.29 91.1837 21.08 91.797 21.08C92.4304 21.08 92.9304 21.29 93.297 21.71C93.6637 22.13 93.847 22.7167 93.847 23.47V30H96.247V23.35C96.247 22.6367 96.4404 22.08 96.827 21.68C97.2204 21.28 97.707 21.08 98.287 21.08C98.907 21.08 99.4004 21.29 99.767 21.71C100.14 22.1233 100.327 22.7 100.327 23.44V30H102.737V22.83C102.737 21.6567 102.417 20.7133 101.777 20C101.144 19.2867 100.23 18.93 99.037 18.93C98.337 18.93 97.697 19.0833 97.117 19.39C96.537 19.6967 96.0804 20.1167 95.747 20.65C95.4604 20.1233 95.0537 19.7067 94.527 19.4C94.0004 19.0867 93.357 18.93 92.597 18.93C91.9504 18.93 91.3537 19.06 90.807 19.32C90.267 19.5733 89.8204 19.9233 89.467 20.37V19.2H87.337V30ZM105.545 17.56H107.955V15.35H105.545V17.56ZM105.545 30H107.955V19.2H105.545V30ZM111.151 30H113.561V15.3H111.151V30ZM116.556 30H117.706V22.64L125.136 30H126.676L119.186 22.52L126.076 15.6H124.556L117.706 22.44V15.6H116.556V30ZM131.527 30.25C132.3 30.25 133.003 30.0967 133.637 29.79C134.277 29.4833 134.797 29.0133 135.197 28.38V30H136.247V19.2H135.087V25.03C135.087 25.8233 134.963 26.53 134.717 27.15C134.477 27.77 134.107 28.2567 133.607 28.61C133.107 28.9633 132.463 29.14 131.677 29.14C130.55 29.14 129.71 28.7633 129.157 28.01C128.61 27.25 128.337 26.1867 128.337 24.82V19.2H127.177V25.11C127.177 26.05 127.33 26.91 127.637 27.69C127.95 28.47 128.427 29.0933 129.067 29.56C129.713 30.02 130.533 30.25 131.527 30.25ZM140.617 34.8H141.817L147.557 19.2H146.347L142.957 28.47L139.237 19.2H138.007L142.397 30L140.617 34.8Z" fill="#3A3A3A"/>
<path d="M14.9724 14.9724C13.0198 13.0198 9.76547 13.0045 8.49946 15.4586C7.81016 16.7948 7.3068 18.2277 7.0103 19.7184C6.38621 22.8559 6.70652 26.108 7.93071 29.0634C9.1549 32.0189 11.228 34.545 13.8878 36.3222C16.5477 38.0995 19.6748 39.0481 22.8738 39.0481C26.0727 39.0481 29.1999 38.0995 31.8597 36.3222C34.5196 34.545 36.5927 32.0189 37.8169 29.0634C39.041 26.108 39.3613 22.8559 38.7373 19.7184C38.4408 18.2277 37.9374 16.7948 37.2481 15.4586C35.9821 13.0045 32.7278 13.0198 30.7752 14.9724L28.958 16.7896C27.7124 18.0352 27.8409 20.0898 28.1845 21.8174C28.3935 22.8678 28.2862 23.9565 27.8764 24.946C27.4666 25.9354 26.7725 26.7811 25.8821 27.3761C24.9916 27.971 23.9447 28.2886 22.8738 28.2886C21.8028 28.2886 20.7559 27.971 19.8655 27.3761C18.975 26.7811 18.281 25.9354 17.8712 24.946C17.4613 23.9565 17.3541 22.8678 17.563 21.8174C17.9067 20.0898 18.0352 18.0352 16.7896 16.7896L14.9724 14.9724Z" fill="#FB76BD"/>
<circle cx="22.7638" cy="9.58475" r="6.58952" fill="#2CA6F3"/>
</svg>
