<svg width="164" height="50" viewBox="0 0 164 50" fill="none" xmlns="http://www.w3.org/2000/svg">
<path d="M59.68 34H62.572V26.704H70.756V34H73.636V16.72H70.756V23.992H62.572V16.72H59.68V34ZM80.6243 34.36C81.6563 34.36 82.5323 34.192 83.2523 33.856C83.9803 33.512 84.6203 32.98 85.1723 32.26V34H87.7043V26.044C87.7043 25.484 87.6803 24.968 87.6323 24.496C87.5843 24.016 87.4443 23.548 87.2123 23.092C86.7883 22.236 86.1363 21.62 85.2563 21.244C84.3843 20.868 83.3723 20.68 82.2203 20.68C80.7003 20.68 79.4883 21.012 78.5843 21.676C77.6803 22.34 77.0683 23.22 76.7483 24.316L79.3883 25.144C79.6043 24.48 79.9843 24.012 80.5283 23.74C81.0723 23.468 81.6363 23.332 82.2203 23.332C83.1003 23.332 83.7483 23.512 84.1643 23.872C84.5803 24.224 84.8163 24.772 84.8723 25.516C83.7363 25.684 82.6803 25.848 81.7043 26.008C80.7363 26.16 79.9123 26.348 79.2323 26.572C78.2083 26.924 77.4603 27.424 76.9883 28.072C76.5163 28.712 76.2803 29.504 76.2803 30.448C76.2803 31.16 76.4443 31.812 76.7723 32.404C77.1083 32.996 77.6003 33.472 78.2483 33.832C78.8963 34.184 79.6883 34.36 80.6243 34.36ZM81.2003 32.056C80.5203 32.056 80.0003 31.9 79.6403 31.588C79.2883 31.276 79.1123 30.884 79.1123 30.412C79.1123 29.988 79.2483 29.644 79.5203 29.38C79.8003 29.116 80.1883 28.892 80.6843 28.708C81.1403 28.556 81.6883 28.424 82.3283 28.312C82.9683 28.192 83.8043 28.052 84.8363 27.892C84.8283 28.196 84.8083 28.536 84.7763 28.912C84.7443 29.28 84.6683 29.612 84.5483 29.908C84.4523 30.204 84.2643 30.52 83.9843 30.856C83.7123 31.192 83.3443 31.476 82.8803 31.708C82.4163 31.94 81.8563 32.056 81.2003 32.056ZM90.8044 34H93.7204V26.02C93.7204 25.212 93.9404 24.556 94.3804 24.052C94.8284 23.548 95.4204 23.296 96.1564 23.296C96.9164 23.296 97.5164 23.548 97.9564 24.052C98.3964 24.556 98.6164 25.26 98.6164 26.164V34H101.496V26.02C101.496 25.164 101.728 24.496 102.192 24.016C102.664 23.536 103.248 23.296 103.944 23.296C104.688 23.296 105.28 23.548 105.72 24.052C106.168 24.548 106.392 25.24 106.392 26.128V34H109.284V25.396C109.284 23.988 108.9 22.856 108.132 22C107.372 21.144 106.276 20.716 104.844 20.716C104.004 20.716 103.236 20.9 102.54 21.268C101.844 21.636 101.296 22.14 100.896 22.78C100.552 22.148 100.064 21.648 99.4324 21.28C98.8004 20.904 98.0284 20.716 97.1164 20.716C96.3404 20.716 95.6244 20.872 94.9684 21.184C94.3204 21.488 93.7844 21.908 93.3604 22.444V21.04H90.8044V34ZM112.654 19.072H115.546V16.42H112.654V19.072ZM112.654 34H115.546V21.04H112.654V34ZM119.381 34H122.273V16.36H119.381V34ZM125.868 34H127.248V25.168L136.164 34H138.012L129.024 25.024L137.292 16.72H135.468L127.248 24.928V16.72H125.868V34ZM143.832 34.3C144.76 34.3 145.604 34.116 146.364 33.748C147.132 33.38 147.756 32.816 148.236 32.056V34H149.496V21.04H148.104V28.036C148.104 28.988 147.956 29.836 147.66 30.58C147.372 31.324 146.928 31.908 146.328 32.332C145.728 32.756 144.956 32.968 144.012 32.968C142.66 32.968 141.652 32.516 140.988 31.612C140.332 30.7 140.004 29.424 140.004 27.784V21.04H138.612V28.132C138.612 29.26 138.796 30.292 139.164 31.228C139.54 32.164 140.112 32.912 140.88 33.472C141.656 34.024 142.64 34.3 143.832 34.3ZM154.74 39.76H156.18L163.068 21.04H161.616L157.548 32.164L153.084 21.04H151.608L156.876 34L154.74 39.76Z" fill="white"/>
<path d="M15.9437 15.9437C13.9911 13.991 10.7456 13.9736 9.42055 16.3964C8.56996 17.9517 7.95533 19.6353 7.60573 21.3929C6.92865 24.7968 7.27615 28.325 8.6043 31.5315C9.93244 34.7379 12.1816 37.4785 15.0673 39.4066C17.953 41.3348 21.3457 42.364 24.8163 42.364C28.2869 42.364 31.6796 41.3348 34.5653 39.4066C37.451 37.4785 39.7001 34.7379 41.0283 31.5315C42.3564 28.325 42.7039 24.7968 42.0268 21.3929C41.6772 19.6353 41.0626 17.9517 40.212 16.3964C38.887 13.9736 35.6415 13.991 33.6889 15.9437L31.4171 18.2154C30.0657 19.5668 30.2052 21.7958 30.578 23.6702C30.8047 24.8097 30.6883 25.9909 30.2437 27.0644C29.7991 28.1378 29.0461 29.0553 28.08 29.7008C27.114 30.3463 25.9782 30.6908 24.8163 30.6908C23.6544 30.6908 22.5186 30.3463 21.5525 29.7008C20.5865 29.0553 19.8335 28.1378 19.3889 27.0644C18.9442 25.9909 18.8279 24.8097 19.0546 23.6702C19.4274 21.7958 19.5668 19.5668 18.2155 18.2154L15.9437 15.9437Z" fill="white"/>
<circle cx="24.6968" cy="10.3986" r="7.14907" fill="white"/>
</svg>
