<svg width="34" height="34" viewBox="0 0 34 34" fill="none" xmlns="http://www.w3.org/2000/svg">
<path fill-rule="evenodd" clip-rule="evenodd" d="M28.3333 14.45C28.3333 7.39504 22.95 2.83337 17 2.83337C11.05 2.83337 5.66663 7.39504 5.66663 14.45C5.66663 18.955 9.13746 24.2534 16.0508 30.3592C16.5891 30.8267 17.3966 30.8267 17.935 30.3592C24.8625 24.2534 28.3333 18.955 28.3333 14.45ZM16.3929 7.89288C15.719 7.89288 15.1786 8.43324 15.1786 9.10717C15.1786 9.7811 15.719 10.3215 16.3929 10.3215C17.0668 10.3215 17.6072 9.7811 17.6072 9.10717C17.6072 8.43324 17.0668 7.89288 16.3929 7.89288ZM18.2143 12.75C18.9247 13.0475 19.4225 13.7579 19.4286 14.5715V16.3929C19.4286 16.7268 19.1554 17 18.8215 17H17.6072V19.125C17.6072 19.629 17.2004 20.0357 16.6965 20.0357C16.1925 20.0357 15.7857 19.629 15.7857 19.125V17H15.1786C14.8447 17 14.5715 16.7268 14.5715 16.3929V12.8472C14.5715 11.8636 15.3122 10.9832 16.2957 10.9286C17.3522 10.88 18.2143 11.7118 18.2143 12.75Z" fill="#FF5A5A"/>
</svg>
